<svg xmlns="http://www.w3.org/2000/svg" width="106" height="28" viewBox="0 0 106 28">
  <path fill="#7C00FF" fill-opacity=".7" fill-rule="evenodd" d="M673.457433,166.6352 L672.219033,170.12 L675.012633,173 L668.215833,173 L670.203033,170.12 L676.654233,152.552001 L679.534233,151.400001 L687.022233,171.1568 L688.289433,173 L679.217433,173 L681.838233,171.1856 L680.052633,166.6064 L673.457433,166.6352 Z M674.062233,164.9072 L679.505433,164.8784 L676.769433,157.304 L674.062233,164.9072 Z M693.641481,152.264001 L693.641481,170.984 L695.484681,173 L686.959881,173 L688.889481,170.984 L688.889481,154.568 L686.959881,152.552001 L693.641481,152.264001 Z M706.567928,163.0928 L702.852729,163.0928 L702.852729,162.8048 C702.852729,161.3648 702.363129,160.4432 701.326329,160.4432 C700.231929,160.4432 699.051129,161.912 699.051129,164.5904 C699.051129,167.9888 701.038329,169.5152 703.054328,169.5152 C704.667128,169.5152 705.732728,168.8528 706.567928,167.9312 L707.374328,168.1616 C706.395128,171.3872 704.407928,173.3744 701.412729,173.3744 C697.179129,173.3744 695.019129,169.9184 695.019129,166.2032 C695.019129,161.7104 698.043129,158.5136 701.787129,158.5136 C704.407928,158.4848 706.855928,159.5792 706.855928,161.6816 C706.855928,162.1712 706.711928,162.7472 706.567928,163.0928 Z M712.899176,152.264001 L712.870376,160.5296 L712.927976,160.5296 C713.820776,159.3488 715.260776,158.5136 717.046376,158.5136 C719.897576,158.5136 721.999976,160.328 721.999976,163.0064 L721.999976,170.984 L723.583976,173 L715.750376,173 L717.247976,170.984 L717.247976,162.2 L713.100776,162.2 L713.100776,170.984 L714.569576,173 L706.764776,173 L708.348776,170.984 L708.348776,154.568 L706.764776,152.552001 L712.899176,152.264001 Z M735.185624,163.4672 L735.185624,164.9072 L727.208024,164.9072 C727.323224,168.0752 729.252824,169.5152 731.211224,169.5152 C732.968024,169.5152 733.803224,168.7952 734.868824,167.8736 L735.531224,168.1616 C734.552024,171.3872 732.564824,173.3744 729.569624,173.3744 C725.336024,173.3744 723.176024,169.9184 723.176024,166.2032 C723.176024,162.1424 725.825624,158.5136 729.598424,158.5136 C733.169624,158.5136 735.185624,160.8464 735.185624,163.4672 Z M727.323224,163.208 L731.067224,163.208 L731.067224,162.8048 C731.067224,161.3648 730.520024,160.616 729.483224,160.616 C728.590424,160.616 727.668824,161.5376 727.323224,163.208 Z M740.998471,158.6 L740.768071,161.1056 L740.825671,161.1056 C741.891271,159.4928 743.417671,158.5136 745.606471,158.5136 C747.536071,158.5136 748.659271,159.4064 749.465671,160.8176 C750.473671,159.3776 751.827271,158.5136 754.160071,158.5136 C756.867271,158.5136 758.451271,160.328 758.451271,163.0064 L758.451271,170.984 L759.776071,173 L752.374471,173 L753.699271,170.984 L753.699271,161.912 L750.012871,161.912 L750.012871,170.984 L751.222471,173 L744.080071,173 L745.260871,170.984 L745.260871,161.912 L741.574471,161.912 L741.574471,170.984 L742.928071,173 L735.238472,173 L736.822472,170.984 L736.822472,160.904 L735.238472,158.888 L740.998471,158.6 Z M763.227319,178.9904 C761.412919,178.9904 759.368119,177.8384 759.368119,175.016 L765.300919,175.016 L758.446519,158.888 L766.452919,158.888 L764.667319,160.904 L768.008119,169.112 L768.065719,169.112 L770.139319,163.5536 L768.036919,158.888 L773.912119,158.888 L767.460919,175.4192 C766.683319,177.4928 765.012919,178.9904 763.227319,178.9904 Z" transform="translate(-668 -151)"/>
</svg>
